<svg xmlns="http://www.w3.org/2000/svg" xml:space="preserve" fill-rule="evenodd" stroke-linejoin="round" stroke-miterlimit="2" clip-rule="evenodd" viewBox="0 0 920 161"><clipPath id="a"><path d="M0 0h213.1v160.1H0z"/></clipPath><g clip-path="url(#a)"><path fill="#e0e0e0" d="m37.4 16-.2-1.8a7 7 0 0 1 5.2-6.8l27-7.2 1.8-.2c3.3 0 6.2 2.4 6.9 5.7a243 243 0 0 1 58.2.2 7 7 0 0 1 6.9-5.8l1.8.2 27 7.2a7 7 0 0 1 5.2 6.8q0 1.8-.9 3.4 3 2 5.2 4.2a83 83 0 0 1 15.3 24.8 202 202 0 0 1 16.4 70.9c.3 11.4-.8 22.4-4.6 30.9a20 20 0 0 1-20.2 11.6 36 36 0 0 1-21.2-10.8c-3.4-3.2-6.9-7.4-10.3-11.3l-5.1-5.9c-10.2-11.2-22.3-21.4-45.1-21.4a56 56 0 0 0-45.1 21.4q-2.6 2.7-5.1 5.9c-3.4 3.9-6.9 8-10.3 11.3A36 36 0 0 1 25 160.1a20 20 0 0 1-20.2-11.6 73 73 0 0 1-4.6-30.9 208 208 0 0 1 16.4-70.9 83 83 0 0 1 15.3-24.8 31 31 0 0 1 6.1-4.7l-.4-1.1Zm28.5 5.8c-12.3 2.6-20.5 6.2-24.2 9.9a70 70 0 0 0-12.4 20.5 201 201 0 0 0-10.5 32.1q-4 16.6-4.7 33.6-.4 16 3.4 24.8a6 6 0 0 0 6 3.4c4.6-.5 8.5-2.8 13-7q4.3-4.2 8.6-9.4l6.2-7a69 69 0 0 1 55.4-25.9 70 70 0 0 1 55.4 25.9l6.2 7c3 3.5 5.6 6.6 8.6 9.4 4.4 4.2 8.4 6.5 13 7a6 6 0 0 0 6-3.4 61 61 0 0 0 3.4-24.8q-.8-17-4.7-33.6-3.9-16.5-10.5-32.1a71 71 0 0 0-12.4-20.5c-3.7-3.7-12-7.3-24.2-9.9a204 204 0 0 0-40.7-3.8 204 204 0 0 0-40.7 3.8Zm80.4 53.9a7 7 0 0 1-7-7 7 7 0 0 1 7-7 7 7 0 0 1 7 7 7 7 0 0 1-7 7m21-21a7 7 0 0 1-7 7 7 7 0 0 1-7-7 7 7 0 0 1 7-7 7 7 0 0 1 7 7m-64.2 31.4V79H91.5a8 8 0 0 1-4.3-1.2 9 9 0 0 1-3.1-3.1 9 9 0 0 1-1.1-4.3v-2.7h7v2.6q0 .6.5 1.2t1.2.5h11.4V59H91.5a8 8 0 0 1-4.3-1.2 9 9 0 0 1-3.1-3.1 8 8 0 0 1-1.2-4.4V40.2q0-2.4 1.1-4.3a8 8 0 0 1 3.1-3.1 8 8 0 0 1 4.3-1.2H103v-7.2h7.1v7.2h11.4q2.4 0 4.4 1.2a8 8 0 0 1 4.2 7.4v2.7H123v-2.5a2 2 0 0 0-.5-1.2q-.5-.5-1.1-.5H110v13.1h11.4q2.4 0 4.4 1.2t3.1 3.1a8 8 0 0 1 1.2 4.2v10.1a8 8 0 0 1-1.2 4.3 9 9 0 0 1-3.1 3.1 8 8 0 0 1-4.3 1.2h-11.6v7.1h-7.1ZM91.7 51.9h11.4V38.8H91.7a2 2 0 0 0-1.2.5q-.5.4-.5 1.2v9.9q0 .6.5 1.1t1.2.5ZM110.2 72l11.4-.1q.6 0 1.1-.5t.5-1.2v-9.7q0-.6-.5-1.1t-1.1-.5h-11.4zm50.1 17.7a7 7 0 0 1-7-7 7 7 0 0 1 7-7 7 7 0 0 1 7 7 7 7 0 0 1-7 7m21-21a7 7 0 0 1-7 7 7 7 0 0 1-7-7 7 7 0 0 1 7-7 7 7 0 0 1 7 7m-137.1-21h14v14h14v14h-14v14h-14v-14h-14v-14h14z"/></g><text x="236" y="127.5" fill="#e0e0e0" font-family="&quot;Orbitron-Black&quot;,&quot;Orbitron&quot;" font-size="140" font-weight="900">Gi<tspan x="385.6" y="127.5">k</tspan>Dea<tspan x="783.1" y="127.5">l</tspan>s</text></svg>