<?xml version="1.0" encoding="UTF-8" standalone="no"?><!DOCTYPE svg PUBLIC "-//W3C//DTD SVG 1.1//EN" "http://www.w3.org/Graphics/SVG/1.1/DTD/svg11.dtd"><svg width="100%" height="100%" viewBox="0 0 920 161" version="1.1" xmlns="http://www.w3.org/2000/svg" xmlns:xlink="http://www.w3.org/1999/xlink" xml:space="preserve" xmlns:serif="http://www.serif.com/" style="fill-rule:evenodd;clip-rule:evenodd;stroke-linejoin:round;stroke-miterlimit:2;"><clipPath id="_clip1"><rect id="Unified" x="0" y="0" width="213.122" height="160.134"/></clipPath><g clip-path="url(#_clip1)"><path d="M37.368,16.037c-0.157,-0.588 -0.238,-1.194 -0.238,-1.803c0,-3.157 2.139,-5.941 5.19,-6.755l27.013,-7.243c0.587,-0.157 1.192,-0.236 1.8,-0.236c3.346,0 6.245,2.402 6.869,5.689c9.158,-1.105 18.876,-1.636 28.565,-1.636c10.067,0 20.176,0.573 29.642,1.762c0.57,-3.345 3.498,-5.816 6.892,-5.816c0.61,0 1.216,0.08 1.805,0.237l27.013,7.243c3.048,0.816 5.183,3.598 5.183,6.753c0,1.205 -0.312,2.39 -0.905,3.44c1.967,1.268 3.705,2.652 5.215,4.153c5.705,5.705 10.906,14.681 15.31,24.776c4.474,10.249 8.375,22.245 11.256,34.48c2.88,12.234 4.754,24.888 5.089,36.437c0.336,11.409 -0.825,22.399 -4.586,30.9c-3.509,7.808 -11.691,12.508 -20.204,11.605c-8.893,-0.937 -15.59,-5.509 -21.155,-10.808c-3.426,-3.244 -6.935,-7.355 -10.333,-11.297c-1.762,-2.069 -3.496,-4.083 -5.145,-5.914c-10.179,-11.242 -22.329,-21.351 -45.078,-21.351c-22.749,0 -34.899,10.109 -45.078,21.351c-1.664,1.832 -3.384,3.845 -5.145,5.914c-3.398,3.943 -6.907,8.04 -10.333,11.297c-5.565,5.313 -12.262,9.871 -21.155,10.808c-8.513,0.903 -16.695,-3.797 -20.204,-11.605c-3.775,-8.501 -4.922,-19.505 -4.6,-30.9c0.336,-11.549 2.237,-24.189 5.103,-36.437c2.88,-12.234 6.795,-24.231 11.256,-34.48c4.404,-10.095 9.606,-19.071 15.296,-24.776c1.824,-1.797 3.857,-3.369 6.054,-4.684l-0.389,-1.091l-0.004,-0.013Zm28.469,5.774c-12.262,2.587 -20.54,6.194 -24.231,9.899c-3.859,3.859 -8.207,10.948 -12.374,20.484c-4.403,10.375 -7.903,21.111 -10.459,32.089c-2.677,11.031 -4.265,22.299 -4.74,33.641c-0.308,10.556 0.867,19.127 3.398,24.832c1.06,2.272 3.464,3.627 5.956,3.356c4.572,-0.475 8.529,-2.782 12.989,-7.019c2.964,-2.824 5.593,-5.914 8.599,-9.424c1.86,-2.181 3.859,-4.516 6.152,-7.047c11.549,-12.766 27.167,-25.937 55.439,-25.937c28.272,0 43.89,13.171 55.439,25.937c2.293,2.531 4.292,4.866 6.152,7.047c2.992,3.509 5.635,6.6 8.599,9.424c4.446,4.237 8.403,6.544 12.989,7.033c2.496,0.269 4.901,-1.092 5.956,-3.37c2.517,-5.705 3.705,-14.262 3.398,-24.832c-0.475,-11.342 -2.062,-22.609 -4.74,-33.641c-2.556,-10.977 -6.055,-21.714 -10.459,-32.089c-4.167,-9.536 -8.529,-16.639 -12.374,-20.484c-3.691,-3.705 -11.969,-7.313 -24.231,-9.899c-11.885,-2.503 -26.244,-3.775 -40.73,-3.775c-14.485,0 -28.845,1.272 -40.73,3.775Zm80.428,53.901c-3.835,0 -6.991,-3.156 -6.991,-6.991c0,-3.835 3.156,-6.991 6.991,-6.991c3.835,0 6.991,3.156 6.991,6.991c0,3.835 -3.156,6.991 -6.991,6.991Zm20.973,-20.973c0,3.835 -3.156,6.991 -6.991,6.991c-3.835,0 -6.991,-3.156 -6.991,-6.991c0,-3.835 3.156,-6.991 6.991,-6.991c3.835,0 6.991,3.156 6.991,6.991Zm-64.22,31.384l0,-7.097l-11.566,0c-1.577,0 -3.023,-0.383 -4.337,-1.15c-1.314,-0.767 -2.344,-1.796 -3.089,-3.089c-0.745,-1.292 -1.117,-2.727 -1.117,-4.304l0,-2.694l7.032,0l0,2.563c0,0.438 0.164,0.821 0.493,1.15c0.329,0.329 0.712,0.493 1.15,0.493l11.434,0l0,-13.012l-11.566,0c-1.577,0 -3.012,-0.383 -4.304,-1.15c-1.292,-0.767 -2.322,-1.796 -3.089,-3.089c-0.767,-1.292 -1.15,-2.749 -1.15,-4.37l0,-10.12c0,-1.577 0.372,-3.012 1.117,-4.304c0.745,-1.292 1.774,-2.322 3.089,-3.089c1.314,-0.767 2.76,-1.15 4.337,-1.15l11.566,0l0,-7.163l7.097,0l0,7.163l11.434,0c1.621,-0 3.089,0.383 4.403,1.15c1.314,0.767 2.355,1.796 3.121,3.089c0.767,1.292 1.128,2.727 1.084,4.304l0,2.694l-7.097,0l0,-2.497c0,-0.438 -0.153,-0.832 -0.46,-1.183c-0.307,-0.35 -0.679,-0.526 -1.117,-0.526l-11.369,0l0,13.143l11.434,0c1.621,0 3.089,0.383 4.403,1.15c1.314,0.767 2.355,1.796 3.121,3.089c0.767,1.292 1.15,2.705 1.15,4.239l0,10.12c0,1.577 -0.383,3.012 -1.15,4.304c-0.767,1.292 -1.796,2.322 -3.089,3.089c-1.292,0.767 -2.727,1.15 -4.304,1.15l-11.566,0l0,7.097l-7.097,0Zm-11.434,-34.238l11.434,0l0,-13.143l-11.434,0c-0.438,0 -0.821,0.164 -1.15,0.493c-0.329,0.329 -0.493,0.712 -0.493,1.15l0,9.923c0,0.438 0.164,0.81 0.493,1.117c0.329,0.307 0.712,0.46 1.15,0.46Zm18.532,20.109l11.369,-0.066c0.438,0 0.81,-0.164 1.117,-0.493c0.307,-0.329 0.46,-0.712 0.46,-1.15l0,-9.726c0,-0.438 -0.164,-0.81 -0.493,-1.117c-0.329,-0.307 -0.69,-0.46 -1.084,-0.46l-11.369,0l0,13.012Zm50.131,17.7c-3.835,0 -6.991,-3.156 -6.991,-6.991c0,-3.835 3.156,-6.991 6.991,-6.991c3.835,0 6.991,3.156 6.991,6.991c0,3.835 -3.156,6.991 -6.991,6.991Zm20.973,-20.973c0,3.835 -3.156,6.991 -6.991,6.991c-3.835,0 -6.991,-3.156 -6.991,-6.991c0,-3.835 3.156,-6.991 6.991,-6.991c3.835,0 6.991,3.156 6.991,6.991Zm-137.087,-20.973l13.982,0l0,13.982l13.982,0l0,13.982l-13.982,0l0,13.982l-13.982,0l0,-13.982l-13.982,0l0,-13.982l13.982,0l0,-13.982Z" style="fill:#e0e0e0;"/></g><path d="M264.514,127.528c-3.733,0 -7.187,-0.933 -10.36,-2.8c-3.173,-1.867 -5.693,-4.387 -7.56,-7.56c-1.867,-3.173 -2.8,-6.627 -2.8,-10.36l0,-59.36c0,-3.827 0.933,-7.303 2.8,-10.43c1.867,-3.127 4.387,-5.623 7.56,-7.49c3.173,-1.867 6.627,-2.8 10.36,-2.8l59.22,0c3.827,-0 7.303,0.933 10.43,2.8c3.127,1.867 5.647,4.363 7.56,7.49c1.913,3.127 2.87,6.603 2.87,10.43l0,9.52l-21.98,0l0,-8.4l-57.12,0l0,57.12l57.12,0l0,-15.12l-21.84,0l0,-21.84l43.82,0l0,38.08c0,3.733 -0.957,7.187 -2.87,10.36c-1.913,3.173 -4.433,5.693 -7.56,7.56c-3.127,1.867 -6.603,2.8 -10.43,2.8l-59.22,0Z" style="fill:#e0e0e0;fill-rule:nonzero;"/><path d="M359.434,127.528l0,-81.2l21.42,0l0,81.2l-21.42,0Zm0,-86.24l0,-21.56l21.42,0l0,21.56l-21.42,0Z" style="fill:#e0e0e0;fill-rule:nonzero;"/><path d="M393.174,127.528l0,-107.8l21.42,0l0,56.42l10.92,0l27.58,-29.82l21.56,0l0,7.28l-30.24,33.32l30.24,33.32l0,7.28l-21.56,0l-27.58,-29.82l-10.92,0l0,29.82l-21.42,0Z" style="fill:#e0e0e0;fill-rule:nonzero;"/><path d="M484.174,127.528l0,-100.8l79.94,0c3.827,-0 7.303,0.933 10.43,2.8c3.127,1.867 5.647,4.363 7.56,7.49c1.913,3.127 2.87,6.603 2.87,10.43l0,59.36c0,3.733 -0.957,7.187 -2.87,10.36c-1.913,3.173 -4.433,5.693 -7.56,7.56c-3.127,1.867 -6.603,2.8 -10.43,2.8l-79.94,0Zm21.56,-21.84l57.26,0l0,-57.12l-57.26,0l0,57.12Z" style="fill:#e0e0e0;fill-rule:nonzero;"/><path d="M620.254,127.528c-3.64,0 -7,-0.933 -10.08,-2.8c-3.08,-1.867 -5.553,-4.34 -7.42,-7.42c-1.867,-3.08 -2.8,-6.44 -2.8,-10.08l0,-40.6c0,-3.64 0.933,-7 2.8,-10.08c1.867,-3.08 4.34,-5.553 7.42,-7.42c3.08,-1.867 6.44,-2.8 10.08,-2.8l41.72,0c3.733,0 7.14,0.933 10.22,2.8c3.08,1.867 5.53,4.34 7.35,7.42c1.82,3.08 2.73,6.44 2.73,10.08l0,31.08l-60.9,0l0,8.4l60.9,0l0,21.42l-62.02,0Zm1.12,-48.58l39.48,0l0,-11.2l-39.48,0l0,11.2Z" style="fill:#e0e0e0;fill-rule:nonzero;"/><path d="M717.274,127.528c-3.733,0 -7.14,-0.933 -10.22,-2.8c-3.08,-1.867 -5.53,-4.34 -7.35,-7.42c-1.82,-3.08 -2.73,-6.44 -2.73,-10.08l0,-31.08l60.9,0l0,-8.4l-60.9,0l0,-21.42l62.02,0c3.733,0 7.14,0.933 10.22,2.8c3.08,1.867 5.53,4.34 7.35,7.42c1.82,3.08 2.73,6.44 2.73,10.08l0,60.9l-62.02,0Zm1.12,-21.42l39.48,0l0,-11.2l-39.48,0l0,11.2Z" style="fill:#e0e0e0;fill-rule:nonzero;"/><path d="M810.654,127.528c-3.64,0 -7,-0.933 -10.08,-2.8c-3.08,-1.867 -5.553,-4.34 -7.42,-7.42c-1.867,-3.08 -2.8,-6.44 -2.8,-10.08l0,-87.64l21.56,0l0,86.52l16.38,0l0,21.42l-17.64,0Z" style="fill:#e0e0e0;fill-rule:nonzero;"/><path d="M857.274,127.528c-3.64,0 -7,-0.933 -10.08,-2.8c-3.08,-1.867 -5.553,-4.34 -7.42,-7.42c-1.867,-3.08 -2.8,-6.44 -2.8,-10.08l0,-4.06l21.42,0l0,2.94l39.48,0l0,-8.4l-40.6,0c-3.64,0 -7,-0.933 -10.08,-2.8c-3.08,-1.867 -5.553,-4.34 -7.42,-7.42c-1.867,-3.08 -2.8,-6.44 -2.8,-10.08l0,-10.78c0,-3.64 0.933,-7 2.8,-10.08c1.867,-3.08 4.34,-5.553 7.42,-7.42c3.08,-1.867 6.44,-2.8 10.08,-2.8l41.72,0c3.733,0 7.14,0.933 10.22,2.8c3.08,1.867 5.553,4.34 7.42,7.42c1.867,3.08 2.8,6.44 2.8,10.08l0,4.06l-21.56,0l0,-2.94l-39.48,0l0,8.4l40.6,0c3.733,0 7.14,0.933 10.22,2.8c3.08,1.867 5.553,4.34 7.42,7.42c1.867,3.08 2.8,6.44 2.8,10.08l0,10.78c0,3.64 -0.933,7 -2.8,10.08c-1.867,3.08 -4.34,5.553 -7.42,7.42c-3.08,1.867 -6.487,2.8 -10.22,2.8l-41.72,0Z" style="fill:#e0e0e0;fill-rule:nonzero;"/></svg>