<svg xmlns="http://www.w3.org/2000/svg" xml:space="preserve" style="fill-rule:evenodd;clip-rule:evenodd;stroke-linejoin:round;stroke-miterlimit:2" viewBox="0 0 1072 1072"><g transform="scale(33.5)"><circle cx="16" cy="16" r="16" style="fill:#050505"/><path d="M3.051 3.259a.5.5 0 0 1 .354-.612l1.932-.518a.5.5 0 0 1 .62.39c.655-.079 1.35-.117 2.043-.117.72 0 1.443.041 2.12.126a.5.5 0 0 1 .622-.399l1.932.518a.5.5 0 0 1 .306.729q.211.137.373.297c.408.408.78 1.05 1.095 1.772.32.733.599 1.591.805 2.466s.34 1.78.364 2.606c.024.816-.059 1.602-.328 2.21a1.42 1.42 0 0 1-1.445.83c-.636-.067-1.115-.394-1.513-.773-.245-.232-.496-.526-.739-.808-.126-.148-.25-.292-.368-.423-.728-.804-1.597-1.527-3.224-1.527s-2.496.723-3.224 1.527c-.119.131-.242.275-.368.423-.243.282-.494.575-.739.808-.398.38-.877.706-1.513.773a1.42 1.42 0 0 1-1.445-.83c-.27-.608-.352-1.395-.329-2.21.024-.826.16-1.73.365-2.606.206-.875.486-1.733.805-2.466.315-.722.687-1.364 1.094-1.772q.196-.194.433-.335zm2.036.413c-.877.185-1.469.443-1.733.708-.276.276-.587.783-.885 1.465-.315.742-.565 1.51-.748 2.295a12.4 12.4 0 0 0-.339 2.406c-.022.755.062 1.368.243 1.776a.42.42 0 0 0 .426.24c.327-.034.61-.199.929-.502.212-.202.4-.423.615-.674.133-.156.276-.323.44-.504C4.861 9.969 5.978 9.027 8 9.027s3.139.942 3.965 1.855c.164.181.307.348.44.504.214.251.403.472.615.674.318.303.601.468.929.503a.42.42 0 0 0 .426-.241c.18-.408.265-1.02.243-1.776a12.4 12.4 0 0 0-.339-2.406 14 14 0 0 0-.748-2.295c-.298-.682-.61-1.19-.885-1.465-.264-.265-.856-.523-1.733-.708-.85-.179-1.877-.27-2.913-.27s-2.063.091-2.913.27m5.752 3.855a.503.503 0 0 1-.5-.5c0-.274.226-.5.5-.5.275 0 .5.226.5.5s-.225.5-.5.5m1.5-1.5c0 .274-.225.5-.5.5a.503.503 0 0 1-.5-.5c0-.274.226-.5.5-.5.275 0 .5.226.5.5M7.746 8.272v-.508h-.827a.6.6 0 0 1-.531-.303.6.6 0 0 1-.08-.308V6.96h.503v.184q0 .046.035.082a.12.12 0 0 0 .082.035h.818v-.93h-.827a.6.6 0 0 1-.308-.083.6.6 0 0 1-.221-.221.6.6 0 0 1-.082-.312v-.724a.61.61 0 0 1 .301-.529.6.6 0 0 1 .31-.082h.827v-.512h.508v.512h.818q.174 0 .314.082a.6.6 0 0 1 .224.221q.082.139.077.308v.193H9.18v-.179a.12.12 0 0 0-.033-.084.1.1 0 0 0-.08-.038h-.813v.94h.818q.174 0 .314.082a.6.6 0 0 1 .224.221.6.6 0 0 1 .082.303v.724a.6.6 0 0 1-.082.308.63.63 0 0 1-.221.221.6.6 0 0 1-.308.082h-.827v.508zm-.818-2.449h.818v-.94h-.818a.12.12 0 0 0-.082.035.12.12 0 0 0-.035.082v.71q0 .047.035.08a.12.12 0 0 0 .082.033m1.326 1.438.813-.005a.1.1 0 0 0 .08-.035.12.12 0 0 0 .033-.082v-.696a.1.1 0 0 0-.036-.08.1.1 0 0 0-.077-.032h-.813zm3.585 1.266a.503.503 0 0 1-.5-.5c0-.274.226-.5.5-.5.275 0 .5.226.5.5s-.225.5-.5.5m1.5-1.5c0 .274-.225.5-.5.5a.503.503 0 0 1-.5-.5c0-.274.226-.5.5-.5.275 0 .5.226.5.5m-9.804-1.5h1v1h1v1h-1v1h-1v-1h-1v-1h1z" style="fill:#e0e0e0" transform="translate(2.088 2.368)scale(1.74)"/></g></svg>